<?xml version="1.0" encoding="UTF-8"?>
<svg xmlns="http://www.w3.org/2000/svg" xmlns:xlink="http://www.w3.org/1999/xlink"
     width="700" height="722.3942208462333" viewBox="0 -400.0 387.59999999999997 400.0">
<defs>
</defs>
<path d="M100.0,-50.7 L100.0,-50.7 L99.5184726672197,-40.898285967043954 L98.07852804032305,-31.190967798387195 L95.69403357322089,-21.67153227455379 L92.38795325112869,-12.431656763491063 L88.19212643483553,-3.560326317400282 L83.14696123025456,4.857023301960169 L77.30104533627375,12.739328416364494 L70.71067811865481,20.01067811865468 L63.43932841636462,26.60104533627363 L55.55702330196031,32.44696123025446 L47.139673682599856,37.49212643483544 L38.26834323650908,41.68795325112863 L29.02846772544636,44.99403357322085 L19.509032201612964,47.37852804032302 L9.801714032956209,48.818472667219666 L1.6155445744325867e-13,49.3 L-9.80171403295589,48.818472667219694 L-19.509032201612648,47.378528040323076 L-29.02846772544605,44.994033573220946 L-38.268343236508784,41.68795325112875 L-47.13967368259957,37.4921264348356 L-55.55702330196005,32.44696123025463 L-63.43932841636436,26.601045336273856 L-70.71067811865458,20.01067811865491 L-77.30104533627353,12.739328416364756 L-83.14696123025438,4.8570233019604245 L-88.19212643483537,-3.5603263173999835 L-92.38795325112858,-12.431656763490771 L-95.69403357322079,-21.67153227455347 L-98.078528040323,-31.190967798386882 L-99.51847266721965,-40.89828596704361 L-100.0,-50.69999999999968 L-99.51847266721971,-60.50171403295575 L-98.0785280403231,-70.20903220161249 L-95.69403357322098,-79.72846772544592 L-92.38795325112882,-88.96834323650864 L-88.19212643483567,-97.83967368259945 L-83.14696123025475,-106.25702330195989 L-77.30104533627394,-114.13932841636426 L-70.71067811865504,-121.41067811865446 L-63.43932841636486,-128.00104533627345 L-55.557023301960584,-133.8469612302543 L-47.13967368260018,-138.8921264348353 L-38.26834323650936,-143.0879532511285 L-29.028467725446667,-146.39403357322078 L-19.5090322016133,-148.77852804032295 L-9.801714032956575,-150.21847266721966 L-4.624589118372728e-13,-150.7 L9.801714032955566,-150.21847266721974 L19.509032201612307,-148.77852804032315 L29.028467725445783,-146.394033573221 L38.26834323650851,-143.08795325112888 L47.13967368259929,-138.89212643483575 L55.55702330195974,-133.84696123025486 L63.43932841636415,-128.00104533627402 L70.71067811865436,-121.41067811865516 L77.30104533627332,-114.139328416365 L83.14696123025418,-106.25702330196074 L88.19212643483525,-97.83967368260026 L92.38795325112844,-88.96834323650953 L95.69403357322071,-79.72846772544685 L98.07852804032291,-70.20903220161348 L99.51847266721963,-60.50171403295667 L100.0,-50.7" stroke="black" stroke-width="1.1074285714285714" fill="#DEB887" />
<path d="M293.79999999999995,-0.0 L293.79999999999995,-0.0 L293.3184726672197,9.80171403295605 L291.87852804032303,19.509032201612808 L289.49403357322086,29.028467725446212 L286.18795325112865,38.26834323650894 L281.99212643483554,47.13967368259972 L276.94696123025454,55.55702330196017 L271.1010453362737,63.439328416364496 L264.5106781186548,70.71067811865468 L257.23932841636463,77.30104533627363 L249.35702330196028,83.14696123025446 L240.93967368259985,88.19212643483544 L232.06834323650907,92.38795325112864 L222.82846772544633,95.69403357322085 L213.30903220161295,98.07852804032302 L203.60171403295618,99.51847266721967 L193.80000000000015,100.0 L183.9982859670441,99.5184726672197 L174.29096779838733,98.07852804032308 L164.77153227455392,95.69403357322095 L155.53165676349118,92.38795325112875 L146.6603263174004,88.1921264348356 L138.24297669803994,83.14696123025463 L130.36067158363562,77.30104533627386 L123.0893218813454,70.71067811865491 L116.49895466372645,63.43932841636476 L110.6530387697456,55.55702330196043 L105.60787356516461,47.13967368260002 L101.4120467488714,38.26834323650923 L98.10596642677919,29.028467725446532 L95.72147195967699,19.50903220161312 L94.28152733278033,9.801714032956392 L93.79999999999998,3.2310891488651735e-13 L94.28152733278027,-9.801714032955749 L95.72147195967688,-19.509032201612484 L98.105966426779,-29.028467725445918 L101.41204674887116,-38.268343236508635 L105.60787356516431,-47.13967368259945 L110.65303876974524,-55.557023301959894 L116.49895466372604,-63.43932841636426 L123.08932188134494,-70.71067811865446 L130.3606715836351,-77.30104533627345 L138.2429766980394,-83.14696123025428 L146.6603263173998,-88.19212643483529 L155.53165676349062,-92.38795325112852 L164.77153227455332,-95.69403357322076 L174.29096779838667,-98.07852804032295 L183.99828596704342,-99.51847266721964 L193.79999999999953,-100.0 L203.60171403295556,-99.51847266721974 L213.3090322016123,-98.07852804032315 L222.82846772544576,-95.69403357322102 L232.0683432365085,-92.38795325112888 L240.93967368259928,-88.19212643483576 L249.3570233019597,-83.14696123025485 L257.2393284163641,-77.30104533627402 L264.51067811865437,-70.71067811865515 L271.1010453362733,-63.439328416365 L276.94696123025415,-55.55702330196074 L281.9921264348352,-47.13967368260026 L286.1879532511284,-38.26834323650953 L289.4940335732207,-29.028467725446845 L291.87852804032286,-19.509032201613483 L293.3184726672196,-9.801714032956669 L293.79999999999995,-0.0" stroke="black" stroke-width="1.1074285714285714" fill="#DEB887" />
<path d="M487.59999999999997,-50.7 L487.59999999999997,-50.7 L487.11847266721963,-40.898285967043954 L485.67852804032304,-31.190967798387195 L483.2940335732209,-21.67153227455379 L479.98795325112866,-12.431656763491063 L475.7921264348355,-3.560326317400282 L470.74696123025456,4.857023301960169 L464.9010453362737,12.739328416364494 L458.3106781186548,20.01067811865468 L451.0393284163646,26.60104533627363 L443.1570233019603,32.44696123025446 L434.7396736825998,37.49212643483544 L425.8683432365091,41.68795325112863 L416.62846772544634,44.99403357322085 L407.10903220161293,47.37852804032302 L397.4017140329562,48.818472667219666 L387.60000000000014,49.3 L377.7982859670441,48.818472667219694 L368.09096779838734,47.378528040323076 L358.57153227455393,44.994033573220946 L349.3316567634912,41.68795325112875 L340.4603263174004,37.4921264348356 L332.0429766980399,32.44696123025463 L324.1606715836356,26.601045336273856 L316.8893218813454,20.01067811865491 L310.2989546637264,12.739328416364756 L304.4530387697456,4.8570233019604245 L299.4078735651646,-3.5603263173999835 L295.2120467488714,-12.431656763490771 L291.9059664267792,-21.67153227455347 L289.521471959677,-31.190967798386882 L288.0815273327803,-40.89828596704361 L287.59999999999997,-50.69999999999968 L288.08152733278024,-60.50171403295575 L289.5214719596769,-70.20903220161249 L291.905966426779,-79.72846772544592 L295.21204674887116,-88.96834323650864 L299.4078735651643,-97.83967368259945 L304.4530387697452,-106.25702330195989 L310.298954663726,-114.13932841636426 L316.8893218813449,-121.41067811865446 L324.1606715836351,-128.00104533627345 L332.0429766980394,-133.8469612302543 L340.4603263173998,-138.8921264348353 L349.3316567634906,-143.0879532511285 L358.5715322745533,-146.39403357322078 L368.09096779838666,-148.77852804032295 L377.7982859670434,-150.21847266721966 L387.5999999999995,-150.7 L397.4017140329555,-150.21847266721974 L407.10903220161225,-148.77852804032315 L416.6284677254458,-146.394033573221 L425.86834323650845,-143.08795325112888 L434.73967368259923,-138.89212643483575 L443.1570233019597,-133.84696123025486 L451.0393284163641,-128.00104533627402 L458.3106781186543,-121.41067811865516 L464.9010453362733,-114.139328416365 L470.74696123025416,-106.25702330196074 L475.7921264348352,-97.83967368260026 L479.9879532511284,-88.96834323650953 L483.29403357322064,-79.72846772544685 L485.6785280403229,-70.20903220161348 L487.1184726672196,-60.50171403295667 L487.59999999999997,-50.7" stroke="black" stroke-width="1.1074285714285714" fill="#DEB887" />
<path d="M100.0,-350.7 L100.0,-350.7 L99.5184726672197,-340.89828596704393 L98.07852804032305,-331.1909677983872 L95.69403357322089,-321.6715322745538 L92.38795325112869,-312.43165676349105 L88.19212643483553,-303.56032631740027 L83.14696123025456,-295.14297669803983 L77.30104533627375,-287.2606715836355 L70.71067811865481,-279.9893218813453 L63.43932841636462,-273.3989546637264 L55.55702330196031,-267.5530387697455 L47.139673682599856,-262.5078735651646 L38.26834323650908,-258.31204674887135 L29.02846772544636,-255.00596642677914 L19.509032201612964,-252.62147195967697 L9.801714032956209,-251.18152733278032 L1.6155445744325867e-13,-250.7 L-9.80171403295589,-251.1815273327803 L-19.509032201612648,-252.6214719596769 L-29.02846772544605,-255.00596642677903 L-38.268343236508784,-258.31204674887124 L-47.13967368259957,-262.5078735651644 L-55.55702330196005,-267.55303876974534 L-63.43932841636436,-273.39895466372616 L-70.71067811865458,-279.98932188134506 L-77.30104533627353,-287.26067158363526 L-83.14696123025438,-295.14297669803955 L-88.19212643483537,-303.5603263174 L-92.38795325112858,-312.43165676349076 L-95.69403357322079,-321.67153227455344 L-98.078528040323,-331.19096779838685 L-99.51847266721965,-340.8982859670436 L-100.0,-350.69999999999965 L-99.51847266721971,-360.50171403295576 L-98.0785280403231,-370.20903220161244 L-95.69403357322098,-379.7284677254459 L-92.38795325112882,-388.96834323650864 L-88.19212643483567,-397.8396736825994 L-83.14696123025475,-406.25702330195986 L-77.30104533627394,-414.13932841636426 L-70.71067811865504,-421.41067811865446 L-63.43932841636486,-428.0010453362734 L-55.557023301960584,-433.84696123025424 L-47.13967368260018,-438.8921264348353 L-38.26834323650936,-443.0879532511285 L-29.028467725446667,-446.3940335732208 L-19.5090322016133,-448.77852804032295 L-9.801714032956575,-450.21847266721966 L-4.624589118372728e-13,-450.7 L9.801714032955566,-450.2184726672197 L19.509032201612307,-448.7785280403231 L29.028467725445783,-446.394033573221 L38.26834323650851,-443.08795325112885 L47.13967368259929,-438.89212643483575 L55.55702330195974,-433.8469612302548 L63.43932841636415,-428.001045336274 L70.71067811865436,-421.41067811865514 L77.30104533627332,-414.139328416365 L83.14696123025418,-406.2570233019607 L88.19212643483525,-397.8396736826003 L92.38795325112844,-388.9683432365095 L95.69403357322071,-379.7284677254468 L98.07852804032291,-370.20903220161347 L99.51847266721963,-360.50171403295667 L100.0,-350.7" stroke="black" stroke-width="1.1074285714285714" fill="#DEB887" />
<path d="M293.79999999999995,-400.0 L293.79999999999995,-400.0 L293.3184726672197,-390.19828596704394 L291.87852804032303,-380.4909677983872 L289.49403357322086,-370.9715322745538 L286.18795325112865,-361.73165676349106 L281.99212643483554,-352.8603263174003 L276.94696123025454,-344.44297669803984 L271.1010453362737,-336.5606715836355 L264.5106781186548,-329.2893218813453 L257.23932841636463,-322.69895466372634 L249.35702330196028,-316.8530387697455 L240.93967368259985,-311.8078735651645 L232.06834323650907,-307.61204674887136 L222.82846772544633,-304.30596642677915 L213.30903220161295,-301.921471959677 L203.60171403295618,-300.48152733278033 L193.80000000000015,-300.0 L183.9982859670441,-300.4815273327803 L174.29096779838733,-301.9214719596769 L164.77153227455392,-304.30596642677904 L155.53165676349118,-307.61204674887125 L146.6603263174004,-311.8078735651644 L138.24297669803994,-316.85303876974535 L130.36067158363562,-322.6989546637261 L123.0893218813454,-329.2893218813451 L116.49895466372645,-336.5606715836352 L110.6530387697456,-344.44297669803956 L105.60787356516461,-352.8603263174 L101.4120467488714,-361.7316567634908 L98.10596642677919,-370.97153227455345 L95.72147195967699,-380.49096779838686 L94.28152733278033,-390.1982859670436 L93.79999999999998,-399.99999999999966 L94.28152733278027,-409.8017140329558 L95.72147195967688,-419.5090322016125 L98.105966426779,-429.0284677254459 L101.41204674887116,-438.26834323650866 L105.60787356516431,-447.13967368259944 L110.65303876974524,-455.5570233019599 L116.49895466372604,-463.4393284163643 L123.08932188134494,-470.71067811865447 L130.3606715836351,-477.30104533627343 L138.2429766980394,-483.1469612302543 L146.6603263173998,-488.1921264348353 L155.53165676349062,-492.3879532511285 L164.77153227455332,-495.69403357322074 L174.29096779838667,-498.07852804032296 L183.99828596704342,-499.5184726672196 L193.79999999999953,-500.0 L203.60171403295556,-499.5184726672197 L213.3090322016123,-498.07852804032314 L222.82846772544576,-495.694033573221 L232.0683432365085,-492.38795325112886 L240.93967368259928,-488.19212643483576 L249.3570233019597,-483.1469612302549 L257.2393284163641,-477.301045336274 L264.51067811865437,-470.71067811865515 L271.1010453362733,-463.439328416365 L276.94696123025415,-455.5570233019607 L281.9921264348352,-447.13967368260023 L286.1879532511284,-438.2683432365095 L289.4940335732207,-429.02846772544683 L291.87852804032286,-419.5090322016135 L293.3184726672196,-409.8017140329567 L293.79999999999995,-400.0" stroke="black" stroke-width="1.1074285714285714" fill="#DEB887" />
<path d="M487.59999999999997,-350.7 L487.59999999999997,-350.7 L487.11847266721963,-340.89828596704393 L485.67852804032304,-331.1909677983872 L483.2940335732209,-321.6715322745538 L479.98795325112866,-312.43165676349105 L475.7921264348355,-303.56032631740027 L470.74696123025456,-295.14297669803983 L464.9010453362737,-287.2606715836355 L458.3106781186548,-279.9893218813453 L451.0393284163646,-273.3989546637264 L443.1570233019603,-267.5530387697455 L434.7396736825998,-262.5078735651646 L425.8683432365091,-258.31204674887135 L416.62846772544634,-255.00596642677914 L407.10903220161293,-252.62147195967697 L397.4017140329562,-251.18152733278032 L387.60000000000014,-250.7 L377.7982859670441,-251.1815273327803 L368.09096779838734,-252.6214719596769 L358.57153227455393,-255.00596642677903 L349.3316567634912,-258.31204674887124 L340.4603263174004,-262.5078735651644 L332.0429766980399,-267.55303876974534 L324.1606715836356,-273.39895466372616 L316.8893218813454,-279.98932188134506 L310.2989546637264,-287.26067158363526 L304.4530387697456,-295.14297669803955 L299.4078735651646,-303.5603263174 L295.2120467488714,-312.43165676349076 L291.9059664267792,-321.67153227455344 L289.521471959677,-331.19096779838685 L288.0815273327803,-340.8982859670436 L287.59999999999997,-350.69999999999965 L288.08152733278024,-360.50171403295576 L289.5214719596769,-370.20903220161244 L291.905966426779,-379.7284677254459 L295.21204674887116,-388.96834323650864 L299.4078735651643,-397.8396736825994 L304.4530387697452,-406.25702330195986 L310.298954663726,-414.13932841636426 L316.8893218813449,-421.41067811865446 L324.1606715836351,-428.0010453362734 L332.0429766980394,-433.84696123025424 L340.4603263173998,-438.8921264348353 L349.3316567634906,-443.0879532511285 L358.5715322745533,-446.3940335732208 L368.09096779838666,-448.77852804032295 L377.7982859670434,-450.21847266721966 L387.5999999999995,-450.7 L397.4017140329555,-450.2184726672197 L407.10903220161225,-448.7785280403231 L416.6284677254458,-446.394033573221 L425.86834323650845,-443.08795325112885 L434.73967368259923,-438.89212643483575 L443.1570233019597,-433.8469612302548 L451.0393284163641,-428.001045336274 L458.3106781186543,-421.41067811865514 L464.9010453362733,-414.139328416365 L470.74696123025416,-406.2570233019607 L475.7921264348352,-397.8396736826003 L479.9879532511284,-388.9683432365095 L483.29403357322064,-379.7284677254468 L485.6785280403229,-370.20903220161347 L487.1184726672196,-360.50171403295667 L487.59999999999997,-350.7" stroke="black" stroke-width="1.1074285714285714" fill="#DEB887" />
<path d="M243.79999999999998,-200.0 L243.79999999999998,-200.0 L243.55923633360982,-195.09914298352197 L242.83926402016152,-190.2454838991936 L241.64701678661044,-185.4857661372769 L239.99397662556433,-180.86582838174553 L237.89606321741775,-176.43016315870014 L235.37348061512728,-172.22148834901992 L232.45052266813684,-168.28033579181775 L229.1553390593274,-164.64466094067265 L225.5196642081823,-161.34947733186317 L221.57851165098015,-158.42651938487276 L217.3698368412999,-155.90393678258226 L212.93417161825454,-153.80602337443568 L208.31423386272317,-152.15298321338958 L203.55451610080647,-150.9607359798385 L198.7008570164781,-150.24076366639017 L193.80000000000007,-150.0 L188.89914298352204,-150.24076366639014 L184.04548389919367,-150.96073597983846 L179.28576613727697,-152.15298321338952 L174.6658283817456,-153.80602337443563 L170.2301631587002,-155.9039367825822 L166.02148834901996,-158.42651938487268 L162.0803357918178,-161.34947733186306 L158.4446609406727,-164.64466094067254 L155.1494773318632,-168.2803357918176 L152.2265193848728,-172.22148834901978 L149.7039367825823,-176.4301631587 L147.6060233744357,-180.8658283817454 L145.9529832133896,-185.48576613727673 L144.7607359798385,-190.24548389919343 L144.04076366639015,-195.0991429835218 L143.79999999999998,-199.99999999999983 L144.04076366639012,-204.9008570164779 L144.76073597983844,-209.75451610080626 L145.9529832133895,-214.51423386272296 L147.60602337443558,-219.13417161825433 L149.70393678258216,-223.56983684129972 L152.2265193848726,-227.77851165097994 L155.149477331863,-231.71966420818214 L158.44466094067246,-235.35533905932724 L162.08033579181756,-238.65052266813672 L166.0214883490197,-241.57348061512715 L170.2301631586999,-244.09606321741765 L174.6658283817453,-246.19397662556426 L179.28576613727665,-247.84701678661037 L184.04548389919333,-249.03926402016148 L188.8991429835217,-249.7592363336098 L193.79999999999976,-250.0 L198.70085701647776,-249.75923633360986 L203.55451610080613,-249.03926402016157 L208.3142338627229,-247.8470167866105 L212.93417161825423,-246.19397662556443 L217.36983684129962,-244.09606321741788 L221.57851165097986,-241.57348061512744 L225.51966420818206,-238.650522668137 L229.15533905932716,-235.35533905932758 L232.45052266813664,-231.7196642081825 L235.37348061512708,-227.77851165098036 L237.8960632174176,-223.56983684130012 L239.9939766255642,-219.13417161825475 L241.64701678661032,-214.51423386272342 L242.83926402016144,-209.75451610080674 L243.5592363336098,-204.90085701647834 L243.79999999999998,-200.0" stroke="black" stroke-width="1.1074285714285714" fill="#DEB887" />
<path d="M193.79999999999998,-0.0 L193.79999999999998,-0.0 L0.0,-50.7 L0.0,-350.7 L193.79999999999998,-400.0 L193.79999999999998,-200.0 L193.79999999999998,-0.0" stroke="black" stroke-width="1.1074285714285714" fill="none" />
<path d="M387.59999999999997,-50.7 L387.59999999999997,-50.7 L193.79999999999998,-0.0 L193.79999999999998,-200.0 L193.79999999999998,-400.0 L387.59999999999997,-350.7 L387.59999999999997,-50.7" stroke="black" stroke-width="1.1074285714285714" fill="none" />
<path d="M0.0,-150.7 L0.0,-150.7 L-1100.2943887692084,-150.7" stroke="blue" stroke-width="1.1074285714285714" fill="none" />
<path d="M-1100.2943887692084,-200.7 L-1100.2943887692084,-200.7 L0.0,-200.7" stroke="blue" stroke-width="1.1074285714285714" fill="none" />
<path d="M-1100.2943887692084,-200.7 L-1100.2943887692084,-200.7 L62.899228651152455,-200.7 L104.51552037149852,-182.34422605846441 L137.4781976520864,-148.97138936608127 L250.12180234790503,-148.97138936608675 L283.0844796284771,-182.34422605849704 L324.70077134884883,-200.70000000001173 L1430.2636971223988,-200.7000000002662" stroke="blue" stroke-width="1.1074285714285714" fill="none" />
<path d="M1430.2636971224101,-150.7000000002662 L1430.2636971224101,-150.7000000002662 L335.2378453575438,-150.70000000001417 L311.970009657506,-140.43721313068033 L271.01380987374046,-98.97138936608778 L116.58619012627203,-98.97138936608025 L75.62999034247323,-140.43721313065276 L52.36215464244602,-150.7 L-1100.2943887692084,-150.7" stroke="blue" stroke-width="1.1074285714285714" fill="none" />
</svg>