<?xml version="1.0" encoding="UTF-8"?>
<svg xmlns="http://www.w3.org/2000/svg" xmlns:xlink="http://www.w3.org/1999/xlink"
     width="700" height="609.0" viewBox="0 -174.0 200.0 174.0">
<defs>
</defs>
<path d="M300.0,-0.0 L300.0,-0.0 L299.5184726672197,9.80171403295605 L298.078528040323,19.509032201612808 L295.6940335732209,29.028467725446212 L292.3879532511287,38.26834323650894 L288.19212643483553,47.13967368259972 L283.14696123025453,55.55702330196017 L277.3010453362738,63.439328416364496 L270.7106781186548,70.71067811865468 L263.4393284163646,77.30104533627363 L255.5570233019603,83.14696123025446 L247.13967368259986,88.19212643483544 L238.26834323650908,92.38795325112864 L229.02846772544638,95.69403357322085 L219.50903220161297,98.07852804032302 L209.8017140329562,99.51847266721967 L200.00000000000017,100.0 L190.19828596704411,99.5184726672197 L180.49096779838735,98.07852804032308 L170.97153227455397,95.69403357322095 L161.73165676349123,92.38795325112875 L152.86032631740042,88.1921264348356 L144.44297669803996,83.14696123025463 L136.56067158363564,77.30104533627386 L129.28932188134542,70.71067811865491 L122.69895466372647,63.43932841636476 L116.85303876974562,55.55702330196043 L111.80787356516463,47.13967368260002 L107.61204674887142,38.26834323650923 L104.30596642677921,29.028467725446532 L101.921471959677,19.50903220161312 L100.48152733278035,9.801714032956392 L100.0,3.2310891488651735e-13 L100.48152733278029,-9.801714032955749 L101.9214719596769,-19.509032201612484 L104.30596642677902,-29.028467725445918 L107.61204674887118,-38.268343236508635 L111.80787356516433,-47.13967368259945 L116.85303876974525,-55.557023301959894 L122.69895466372606,-63.43932841636426 L129.28932188134496,-70.71067811865446 L136.56067158363516,-77.30104533627345 L144.44297669803942,-83.14696123025428 L152.86032631739982,-88.19212643483529 L161.73165676349063,-92.38795325112852 L170.97153227455334,-95.69403357322076 L180.4909677983867,-98.07852804032295 L190.19828596704343,-99.51847266721964 L199.99999999999955,-100.0 L209.80171403295557,-99.51847266721974 L219.5090322016123,-98.07852804032315 L229.02846772544578,-95.69403357322102 L238.2683432365085,-92.38795325112888 L247.1396736825993,-88.19212643483576 L255.55702330195973,-83.14696123025485 L263.43932841636416,-77.30104533627402 L270.71067811865436,-70.71067811865515 L277.3010453362733,-63.439328416365 L283.1469612302542,-55.55702330196074 L288.19212643483525,-47.13967368260026 L292.38795325112847,-38.26834323650953 L295.69403357322074,-29.028467725446845 L298.0785280403229,-19.509032201613483 L299.5184726672196,-9.801714032956669 L300.0,-0.0" stroke="black" stroke-width="0.5714285714285714" fill="#DEB887" />
<path d="M100.0,-0.0 L100.0,-0.0 L99.5184726672197,9.80171403295605 L98.07852804032305,19.509032201612808 L95.69403357322089,29.028467725446212 L92.38795325112869,38.26834323650894 L88.19212643483553,47.13967368259972 L83.14696123025456,55.55702330196017 L77.30104533627375,63.439328416364496 L70.71067811865481,70.71067811865468 L63.43932841636462,77.30104533627363 L55.55702330196031,83.14696123025446 L47.139673682599856,88.19212643483544 L38.26834323650908,92.38795325112864 L29.02846772544636,95.69403357322085 L19.509032201612964,98.07852804032302 L9.801714032956209,99.51847266721967 L1.6155445744325867e-13,100.0 L-9.80171403295589,99.5184726672197 L-19.509032201612648,98.07852804032308 L-29.02846772544605,95.69403357322095 L-38.268343236508784,92.38795325112875 L-47.13967368259957,88.1921264348356 L-55.55702330196005,83.14696123025463 L-63.43932841636436,77.30104533627386 L-70.71067811865458,70.71067811865491 L-77.30104533627353,63.43932841636476 L-83.14696123025438,55.55702330196043 L-88.19212643483537,47.13967368260002 L-92.38795325112858,38.26834323650923 L-95.69403357322079,29.028467725446532 L-98.078528040323,19.50903220161312 L-99.51847266721965,9.801714032956392 L-100.0,3.2310891488651735e-13 L-99.51847266721971,-9.801714032955749 L-98.0785280403231,-19.509032201612484 L-95.69403357322098,-29.028467725445918 L-92.38795325112882,-38.268343236508635 L-88.19212643483567,-47.13967368259945 L-83.14696123025475,-55.557023301959894 L-77.30104533627394,-63.43932841636426 L-70.71067811865504,-70.71067811865446 L-63.43932841636486,-77.30104533627345 L-55.557023301960584,-83.14696123025428 L-47.13967368260018,-88.19212643483529 L-38.26834323650936,-92.38795325112852 L-29.028467725446667,-95.69403357322076 L-19.5090322016133,-98.07852804032295 L-9.801714032956575,-99.51847266721964 L-4.624589118372728e-13,-100.0 L9.801714032955566,-99.51847266721974 L19.509032201612307,-98.07852804032315 L29.028467725445783,-95.69403357322102 L38.26834323650851,-92.38795325112888 L47.13967368259929,-88.19212643483576 L55.55702330195974,-83.14696123025485 L63.43932841636415,-77.30104533627402 L70.71067811865436,-70.71067811865515 L77.30104533627332,-63.439328416365 L83.14696123025418,-55.55702330196074 L88.19212643483525,-47.13967368260026 L92.38795325112844,-38.26834323650953 L95.69403357322071,-29.028467725446845 L98.07852804032291,-19.509032201613483 L99.51847266721963,-9.801714032956669 L100.0,-0.0" stroke="black" stroke-width="0.5714285714285714" fill="#DEB887" />
<path d="M200.0,-174.0 L200.0,-174.0 L199.5184726672197,-164.19828596704394 L198.07852804032305,-154.4909677983872 L195.6940335732209,-144.9715322745538 L192.3879532511287,-135.73165676349106 L188.19212643483553,-126.86032631740028 L183.14696123025456,-118.44297669803983 L177.30104533627375,-110.5606715836355 L170.7106781186548,-103.28932188134532 L163.43932841636462,-96.69895466372637 L155.5570233019603,-90.85303876974554 L147.13967368259986,-85.80787356516456 L138.26834323650908,-81.61204674887136 L129.02846772544638,-78.30596642677915 L119.50903220161297,-75.92147195967698 L109.80171403295621,-74.48152733278033 L100.00000000000016,-74.0 L90.19828596704411,-74.4815273327803 L80.49096779838735,-75.92147195967692 L70.97153227455395,-78.30596642677905 L61.731656763491216,-81.61204674887125 L52.86032631740043,-85.8078735651644 L44.44297669803995,-90.85303876974537 L36.56067158363564,-96.69895466372614 L29.289321881345415,-103.28932188134509 L22.698954663726468,-110.56067158363524 L16.853038769745623,-118.44297669803957 L11.807873565164627,-126.86032631739998 L7.612046748871421,-135.73165676349078 L4.305966426779207,-144.97153227455345 L1.9214719596770067,-154.4909677983869 L0.4815273327803453,-164.1982859670436 L0.0,-173.9999999999997 L0.4815273327802885,-183.80171403295574 L1.921471959676893,-193.50903220161248 L4.3059664267790225,-203.02846772544592 L7.61204674887118,-212.26834323650863 L11.807873565164329,-221.13967368259944 L16.853038769745254,-229.5570233019599 L22.698954663726056,-237.43932841636428 L29.28932188134496,-244.71067811865447 L36.56067158363514,-251.30104533627343 L44.442976698039416,-257.1469612302543 L52.86032631739982,-262.1921264348353 L61.73165676349064,-266.3879532511285 L70.97153227455334,-269.69403357322074 L80.49096779838669,-272.07852804032296 L90.19828596704343,-273.5184726672196 L99.99999999999953,-274.0 L109.80171403295557,-273.5184726672197 L119.50903220161231,-272.07852804032314 L129.02846772544578,-269.694033573221 L138.2683432365085,-266.38795325112886 L147.1396736825993,-262.19212643483576 L155.55702330195973,-257.1469612302549 L163.43932841636416,-251.301045336274 L170.71067811865436,-244.71067811865515 L177.30104533627332,-237.43932841636502 L183.1469612302542,-229.55702330196073 L188.19212643483525,-221.13967368260026 L192.38795325112844,-212.26834323650954 L195.6940335732207,-203.02846772544683 L198.0785280403229,-193.50903220161348 L199.5184726672196,-183.80171403295668 L200.0,-174.0" stroke="black" stroke-width="0.5714285714285714" fill="#DEB887" />
<path d="M200.0,-0.0 L200.0,-0.0 L0.0,-0.0 L100.0,-174.0 L200.0,-0.0" stroke="black" stroke-width="0.5714285714285714" fill="none" />
</svg>